<svg width="320" height="320" viewBox="0 0 320 320" fill="none" xmlns="http://www.w3.org/2000/svg">
<path opacity="0.2" d="M290 120H30L160 40L290 120Z" fill="#3B82F6"/>
<path d="M30 130H60V210H40C37.3478 210 34.8043 211.053 32.9289 212.929C31.0536 214.804 30 217.347 30 220C30 222.652 31.0536 225.195 32.9289 227.071C34.8043 228.946 37.3478 230 40 230H280C282.652 230 285.196 228.946 287.071 227.071C288.946 225.195 290 222.652 290 220C290 217.347 288.946 214.804 287.071 212.929C285.196 211.053 282.652 210 280 210H260V130H290C292.176 129.997 294.292 129.286 296.026 127.972C297.761 126.659 299.02 124.816 299.612 122.722C300.205 120.628 300.098 118.399 299.308 116.371C298.519 114.344 297.09 112.629 295.238 111.487L165.238 31.4871C163.662 30.5186 161.849 30.0059 160 30.0059C158.151 30.0059 156.338 30.5186 154.762 31.4871L24.7625 111.487C22.9103 112.629 21.4811 114.344 20.6916 116.371C19.9021 118.399 19.7955 120.628 20.3878 122.722C20.9801 124.816 22.2391 126.659 23.9738 127.972C25.7085 129.286 27.8242 129.997 30 130ZM80 130H120V210H80V130ZM180 130V210H140V130H180ZM240 210H200V130H240V210ZM160 51.7371L254.675 110H65.325L160 51.7371ZM310 260C310 262.652 308.946 265.195 307.071 267.071C305.196 268.946 302.652 270 300 270H20C17.3478 270 14.8043 268.946 12.9289 267.071C11.0536 265.195 10 262.652 10 260C10 257.347 11.0536 254.804 12.9289 252.929C14.8043 251.053 17.3478 250 20 250H300C302.652 250 305.196 251.053 307.071 252.929C308.946 254.804 310 257.347 310 260Z" fill="#3B82F6"/>
</svg>
