<svg width="2010" height="480" viewBox="0 0 2010 480" fill="none" xmlns="http://www.w3.org/2000/svg">
<path opacity="0.2" d="M290 200H30L160 120L290 200Z" fill="#3B82F6"/>
<path d="M30 210H60V290H40C37.3478 290 34.8043 291.053 32.9289 292.929C31.0536 294.804 30 297.347 30 300C30 302.652 31.0536 305.195 32.9289 307.071C34.8043 308.946 37.3478 310 40 310H280C282.652 310 285.196 308.946 287.071 307.071C288.946 305.195 290 302.652 290 300C290 297.347 288.946 294.804 287.071 292.929C285.196 291.053 282.652 290 280 290H260V210H290C292.176 209.997 294.292 209.286 296.026 207.972C297.761 206.659 299.02 204.816 299.612 202.722C300.205 200.628 300.098 198.399 299.308 196.371C298.519 194.344 297.09 192.629 295.238 191.487L165.238 111.487C163.662 110.519 161.849 110.006 160 110.006C158.151 110.006 156.338 110.519 154.762 111.487L24.7625 191.487C22.9103 192.629 21.4811 194.344 20.6916 196.371C19.9021 198.399 19.7955 200.628 20.3878 202.722C20.9801 204.816 22.2391 206.659 23.9738 207.972C25.7085 209.286 27.8242 209.997 30 210ZM80 210H120V290H80V210ZM180 210V290H140V210H180ZM240 290H200V210H240V290ZM160 131.737L254.675 190H65.325L160 131.737ZM310 340C310 342.652 308.946 345.195 307.071 347.071C305.196 348.946 302.652 350 300 350H20C17.3478 350 14.8043 348.946 12.9289 347.071C11.0536 345.195 10 342.652 10 340C10 337.347 11.0536 334.804 12.9289 332.929C14.8043 331.053 17.3478 330 20 330H300C302.652 330 305.196 331.053 307.071 332.929C308.946 334.804 310 337.347 310 340Z" fill="#3B82F6"/>
<path d="M443.28 354.24C428.347 354.24 414.907 351.68 402.96 346.56C391.013 341.227 381.627 333.76 374.8 324.16C367.973 314.56 364.56 303.36 364.56 290.56H403.6C404.453 300.16 408.187 308.053 414.8 314.24C421.627 320.427 431.12 323.52 443.28 323.52C455.867 323.52 465.68 320.533 472.72 314.56C479.76 308.373 483.28 300.48 483.28 290.88C483.28 283.413 481.04 277.333 476.56 272.64C472.293 267.947 466.853 264.32 460.24 261.76C453.84 259.2 444.88 256.427 433.36 253.44C418.853 249.6 407.013 245.76 397.84 241.92C388.88 237.867 381.2 231.68 374.8 223.36C368.4 215.04 365.2 203.947 365.2 190.08C365.2 177.28 368.4 166.08 374.8 156.48C381.2 146.88 390.16 139.52 401.68 134.4C413.2 129.28 426.533 126.72 441.68 126.72C463.227 126.72 480.827 132.16 494.48 143.04C508.347 153.707 516.027 168.427 517.52 187.2H477.2C476.56 179.093 472.72 172.16 465.68 166.4C458.64 160.64 449.36 157.76 437.84 157.76C427.387 157.76 418.853 160.427 412.24 165.76C405.627 171.093 402.32 178.773 402.32 188.8C402.32 195.627 404.347 201.28 408.4 205.76C412.667 210.027 418 213.44 424.4 216C430.8 218.56 439.547 221.333 450.64 224.32C465.36 228.373 477.307 232.427 486.48 236.48C495.867 240.533 503.76 246.827 510.16 255.36C516.773 263.68 520.08 274.88 520.08 288.96C520.08 300.267 516.987 310.933 510.8 320.96C504.827 330.987 495.973 339.093 484.24 345.28C472.72 351.253 459.067 354.24 443.28 354.24ZM639.605 354.88C622.965 354.88 607.925 351.147 594.485 343.68C581.045 336 570.485 325.333 562.805 311.68C555.125 297.813 551.285 281.813 551.285 263.68C551.285 245.76 555.232 229.867 563.125 216C571.018 202.133 581.792 191.467 595.445 184C609.098 176.533 624.352 172.8 641.205 172.8C658.058 172.8 673.312 176.533 686.965 184C700.618 191.467 711.392 202.133 719.285 216C727.178 229.867 731.125 245.76 731.125 263.68C731.125 281.6 727.072 297.493 718.965 311.36C710.858 325.227 699.765 336 685.685 343.68C671.818 351.147 656.458 354.88 639.605 354.88ZM639.605 323.2C648.992 323.2 657.738 320.96 665.845 316.48C674.165 312 680.885 305.28 686.005 296.32C691.125 287.36 693.685 276.48 693.685 263.68C693.685 250.88 691.232 240.107 686.325 231.36C681.418 222.4 674.912 215.68 666.805 211.2C658.698 206.72 649.952 204.48 640.565 204.48C631.178 204.48 622.432 206.72 614.325 211.2C606.432 215.68 600.138 222.4 595.445 231.36C590.752 240.107 588.405 250.88 588.405 263.68C588.405 282.667 593.205 297.387 602.805 307.84C612.618 318.08 624.885 323.2 639.605 323.2ZM803.668 115.2V352H767.188V115.2H803.668ZM870.123 152.32C863.509 152.32 857.963 150.08 853.483 145.6C849.003 141.12 846.763 135.573 846.763 128.96C846.763 122.347 849.003 116.8 853.483 112.32C857.963 107.84 863.509 105.6 870.123 105.6C876.523 105.6 881.963 107.84 886.443 112.32C890.923 116.8 893.163 122.347 893.163 128.96C893.163 135.573 890.923 141.12 886.443 145.6C881.963 150.08 876.523 152.32 870.123 152.32ZM888.043 175.68V352H851.563V175.68H888.043ZM923.778 263.04C923.778 245.333 927.404 229.653 934.658 216C942.124 202.347 952.151 191.787 964.738 184.32C977.538 176.64 991.724 172.8 1007.3 172.8C1018.82 172.8 1030.12 175.36 1041.22 180.48C1052.52 185.387 1061.48 192 1068.1 200.32V115.2H1104.9V352H1068.1V325.44C1062.12 333.973 1053.8 341.013 1043.14 346.56C1032.68 352.107 1020.63 354.88 1006.98 354.88C991.618 354.88 977.538 351.04 964.738 343.36C952.151 335.467 942.124 324.587 934.658 310.72C927.404 296.64 923.778 280.747 923.778 263.04ZM1068.1 263.68C1068.1 251.52 1065.54 240.96 1060.42 232C1055.51 223.04 1049 216.213 1040.9 211.52C1032.79 206.827 1024.04 204.48 1014.66 204.48C1005.27 204.48 996.524 206.827 988.418 211.52C980.311 216 973.698 222.72 968.578 231.68C963.671 240.427 961.218 250.88 961.218 263.04C961.218 275.2 963.671 285.867 968.578 295.04C973.698 304.213 980.311 311.253 988.418 316.16C996.738 320.853 1005.48 323.2 1014.66 323.2C1024.04 323.2 1032.79 320.853 1040.9 316.16C1049 311.467 1055.51 304.64 1060.42 295.68C1065.54 286.507 1068.1 275.84 1068.1 263.68ZM1271.85 237.76C1283.8 239.893 1293.93 246.187 1302.25 256.64C1310.57 267.093 1314.73 278.933 1314.73 292.16C1314.73 303.467 1311.75 313.707 1305.77 322.88C1300.01 331.84 1291.59 338.987 1280.49 344.32C1269.4 349.44 1256.49 352 1241.77 352H1152.81V129.6H1237.61C1252.76 129.6 1265.77 132.16 1276.65 137.28C1287.53 142.4 1295.75 149.333 1301.29 158.08C1306.84 166.613 1309.61 176.213 1309.61 186.88C1309.61 199.68 1306.2 210.347 1299.37 218.88C1292.55 227.413 1283.37 233.707 1271.85 237.76ZM1189.29 223.04H1234.41C1246.36 223.04 1255.64 220.373 1262.25 215.04C1269.08 209.493 1272.49 201.6 1272.49 191.36C1272.49 181.333 1269.08 173.547 1262.25 168C1255.64 162.24 1246.36 159.36 1234.41 159.36H1189.29V223.04ZM1238.57 322.24C1250.95 322.24 1260.65 319.253 1267.69 313.28C1274.73 307.307 1278.25 298.987 1278.25 288.32C1278.25 277.44 1274.52 268.8 1267.05 262.4C1259.59 256 1249.67 252.8 1237.29 252.8H1189.29V322.24H1238.57ZM1342.22 263.04C1342.22 245.333 1345.84 229.653 1353.1 216C1360.56 202.347 1370.59 191.787 1383.18 184.32C1395.98 176.64 1410.06 172.8 1425.42 172.8C1439.28 172.8 1451.34 175.573 1461.58 181.12C1472.03 186.453 1480.35 193.173 1486.54 201.28V175.68H1523.34V352H1486.54V325.76C1480.35 334.08 1471.92 341.013 1461.26 346.56C1450.59 352.107 1438.43 354.88 1424.78 354.88C1409.63 354.88 1395.76 351.04 1383.18 343.36C1370.59 335.467 1360.56 324.587 1353.1 310.72C1345.84 296.64 1342.22 280.747 1342.22 263.04ZM1486.54 263.68C1486.54 251.52 1483.98 240.96 1478.86 232C1473.95 223.04 1467.44 216.213 1459.34 211.52C1451.23 206.827 1442.48 204.48 1433.1 204.48C1423.71 204.48 1414.96 206.827 1406.86 211.52C1398.75 216 1392.14 222.72 1387.02 231.68C1382.11 240.427 1379.66 250.88 1379.66 263.04C1379.66 275.2 1382.11 285.867 1387.02 295.04C1392.14 304.213 1398.75 311.253 1406.86 316.16C1415.18 320.853 1423.92 323.2 1433.1 323.2C1442.48 323.2 1451.23 320.853 1459.34 316.16C1467.44 311.467 1473.95 304.64 1478.86 295.68C1483.98 286.507 1486.54 275.84 1486.54 263.68ZM1660.21 172.8C1674.08 172.8 1686.45 175.68 1697.33 181.44C1708.42 187.2 1717.06 195.733 1723.25 207.04C1729.44 218.347 1732.53 232 1732.53 248V352H1696.37V253.44C1696.37 237.653 1692.42 225.6 1684.53 217.28C1676.64 208.747 1665.86 204.48 1652.21 204.48C1638.56 204.48 1627.68 208.747 1619.57 217.28C1611.68 225.6 1607.73 237.653 1607.73 253.44V352H1571.25V175.68H1607.73V195.84C1613.7 188.587 1621.28 182.933 1630.45 178.88C1639.84 174.827 1649.76 172.8 1660.21 172.8ZM1848.82 264L1930.1 352H1880.82L1815.54 276.16V352H1779.06V115.2H1815.54V252.8L1879.54 175.68H1930.1L1848.82 264ZM1970.97 354.24C1964.36 354.24 1958.81 352 1954.33 347.52C1949.85 343.04 1947.61 337.493 1947.61 330.88C1947.61 324.267 1949.85 318.72 1954.33 314.24C1958.81 309.76 1964.36 307.52 1970.97 307.52C1977.37 307.52 1982.81 309.76 1987.29 314.24C1991.77 318.72 1994.01 324.267 1994.01 330.88C1994.01 337.493 1991.77 343.04 1987.29 347.52C1982.81 352 1977.37 354.24 1970.97 354.24Z" fill="#3B82F6"/>
</svg>
